<svg width="93" height="93" viewBox="0 0 93 93" fill="none" xmlns="http://www.w3.org/2000/svg">
<circle cx="46.5" cy="46.5" r="46.5" fill="white"/>
<path d="M72.5555 26.1333H20.4444C19.4572 26.1333 18.5104 26.4814 17.8124 27.1011C17.1143 27.7208 16.7222 28.5612 16.7222 29.4376V62.4802C16.7222 63.3566 17.1143 64.197 17.8124 64.8167C18.5104 65.4363 19.4572 65.7845 20.4444 65.7845H72.5555C73.5427 65.7845 74.4895 65.4363 75.1875 64.8167C75.8856 64.197 76.2777 63.3566 76.2777 62.4802V29.4376C76.2777 28.5612 75.8856 27.7208 75.1875 27.1011C74.4895 26.4814 73.5427 26.1333 72.5555 26.1333ZM69.6894 62.4802H23.5338L36.5616 50.5188L33.8816 48.2223L20.4444 60.5637V31.9488L43.578 52.3857C44.2754 53.0011 45.2188 53.3465 46.2022 53.3465C47.1855 53.3465 48.1289 53.0011 48.8263 52.3857L72.5555 31.4366V60.349L58.8577 48.1893L56.2336 50.5188L69.6894 62.4802ZM22.8824 29.4376H69.5405L46.2022 50.0397L22.8824 29.4376Z" fill="#2A2A2E"/>
</svg>
