<svg width="50" height="50" viewBox="0 0 50 50" fill="none" xmlns="http://www.w3.org/2000/svg">
<path fill-rule="evenodd" clip-rule="evenodd" d="M15.552 2.221C17.9958 2.1085 18.7749 2.0835 24.9999 2.0835C31.2249 2.0835 32.0041 2.11058 34.4458 2.221C36.8874 2.33141 38.5541 2.721 40.0124 3.28558C41.5395 3.86266 42.9249 4.76475 44.0707 5.93141C45.2374 7.07516 46.1374 8.4585 46.7124 9.98766C47.2791 11.446 47.6666 13.1127 47.7791 15.5502C47.8916 17.9981 47.9166 18.7772 47.9166 25.0002C47.9166 31.2252 47.8895 32.0043 47.7791 34.4481C47.6687 36.8856 47.2791 38.5522 46.7124 40.0106C46.1374 41.5399 45.2359 42.9256 44.0707 44.071C42.9249 45.2377 41.5395 46.1377 40.0124 46.7127C38.5541 47.2793 36.8874 47.6668 34.4499 47.7793C32.0041 47.8918 31.2249 47.9168 24.9999 47.9168C18.7749 47.9168 17.9958 47.8897 15.552 47.7793C13.1145 47.6689 11.4478 47.2793 9.9895 46.7127C8.46017 46.1376 7.07454 45.2361 5.92909 44.071C4.76321 42.9266 3.86099 41.5416 3.28534 40.0127C2.72075 38.5543 2.33325 36.8877 2.22075 34.4502C2.10825 32.0022 2.08325 31.2231 2.08325 25.0002C2.08325 18.7752 2.11034 17.996 2.22075 15.5543C2.33117 13.1127 2.72075 11.446 3.28534 9.98766C3.86184 8.45867 4.76475 7.07373 5.93117 5.92933C7.075 4.76371 8.45924 3.8615 9.98742 3.28558C11.4458 2.721 13.1124 2.3335 15.5499 2.221H15.552ZM34.2603 6.346C31.8437 6.23558 31.1187 6.21266 24.9999 6.21266C18.8812 6.21266 18.1562 6.23558 15.7395 6.346C13.5041 6.44808 12.2916 6.821 11.4833 7.13558C10.4145 7.55225 9.64992 8.046 8.84784 8.84808C8.08751 9.58777 7.50238 10.4883 7.13533 11.4835C6.82075 12.2918 6.44783 13.5043 6.34575 15.7397C6.23534 18.1564 6.21242 18.8814 6.21242 25.0002C6.21242 31.1189 6.23534 31.8439 6.34575 34.2606C6.44783 36.496 6.82075 37.7085 7.13533 38.5168C7.502 39.5106 8.08742 40.4127 8.84784 41.1522C9.58742 41.9127 10.4895 42.4981 11.4833 42.8647C12.2916 43.1793 13.5041 43.5522 15.7395 43.6543C18.1562 43.7647 18.8791 43.7877 24.9999 43.7877C31.1208 43.7877 31.8437 43.7647 34.2603 43.6543C36.4958 43.5522 37.7083 43.1793 38.5166 42.8647C39.5853 42.4481 40.3499 41.9543 41.152 41.1522C41.9124 40.4127 42.4978 39.5106 42.8645 38.5168C43.1791 37.7085 43.552 36.496 43.6541 34.2606C43.7645 31.8439 43.7874 31.1189 43.7874 25.0002C43.7874 18.8814 43.7645 18.1564 43.6541 15.7397C43.552 13.5043 43.1791 12.2918 42.8645 11.4835C42.4478 10.4147 41.9541 9.65016 41.152 8.84808C40.4123 8.08781 39.5118 7.50269 38.5166 7.13558C37.7083 6.821 36.4958 6.44808 34.2603 6.346ZM22.0728 32.0647C23.7075 32.7452 25.5278 32.8371 27.2227 32.3246C28.9176 31.8121 30.382 30.7271 31.3658 29.2548C32.3496 27.7826 32.7917 26.0145 32.6167 24.2525C32.4417 22.4905 31.6603 20.8439 30.4062 19.5939C29.6067 18.7949 28.6399 18.1831 27.5756 17.8026C26.5113 17.422 25.3758 17.2822 24.2509 17.3931C23.1261 17.5041 22.0398 17.863 21.0703 18.4442C20.1009 19.0253 19.2723 19.8142 18.6443 20.754C18.0163 21.6938 17.6045 22.7612 17.4385 23.8792C17.2725 24.9973 17.3565 26.1383 17.6844 27.22C18.0123 28.3017 18.5759 29.2973 19.3348 30.135C20.0936 30.9727 21.0287 31.6318 22.0728 32.0647ZM16.6708 16.671C17.7646 15.5772 19.0631 14.7095 20.4922 14.1176C21.9213 13.5256 23.453 13.2209 24.9999 13.2209C26.5468 13.2209 28.0785 13.5256 29.5076 14.1176C30.9368 14.7095 32.2353 15.5772 33.3291 16.671C34.4229 17.7648 35.2905 19.0633 35.8825 20.4924C36.4745 21.9216 36.7791 23.4533 36.7791 25.0002C36.7791 26.547 36.4745 28.0788 35.8825 29.5079C35.2905 30.937 34.4229 32.2355 33.3291 33.3293C31.1201 35.5384 28.124 36.7794 24.9999 36.7794C21.8759 36.7794 18.8798 35.5384 16.6708 33.3293C14.4617 31.1203 13.2207 28.1242 13.2207 25.0002C13.2207 21.8761 14.4617 18.88 16.6708 16.671ZM39.3916 14.9752C39.6626 14.7195 39.8796 14.412 40.0297 14.0709C40.1798 13.7299 40.2599 13.3622 40.2654 12.9896C40.2708 12.617 40.2014 12.2471 40.0613 11.9018C39.9213 11.5566 39.7133 11.2429 39.4498 10.9794C39.1864 10.7159 38.8727 10.508 38.5274 10.3679C38.1821 10.2278 37.8122 10.1584 37.4396 10.1639C37.0671 10.1693 36.6994 10.2494 36.3583 10.3995C36.0173 10.5496 35.7098 10.7666 35.4541 11.0377C34.9568 11.5648 34.6846 12.265 34.6951 12.9896C34.7057 13.7142 34.9982 14.4062 35.5107 14.9186C36.0231 15.431 36.715 15.7236 37.4396 15.7341C38.1642 15.7447 38.8644 15.4724 39.3916 14.9752Z" fill="white"/>
<rect x="0.5" y="0.5" width="49" height="49" stroke="black"/>
</svg>
