<svg width="50" height="50" viewBox="0 0 50 50" fill="none" xmlns="http://www.w3.org/2000/svg">
<path d="M9.80313 0.0126953C4.41728 0.0126953 0.00927734 4.4206 0.00927734 9.80655V40.1986C0.00927734 45.5844 4.41718 49.9908 9.80313 49.9908H40.1952C45.5811 49.9908 49.9874 45.5845 49.9874 40.1986V9.80655C49.9874 4.4207 45.5811 0.0126953 40.1952 0.0126953H9.80313ZM12.2664 8.2601C14.8488 8.2601 16.4395 9.9554 16.4886 12.1838C16.4886 14.3631 14.8487 16.106 12.2165 16.106H12.168C9.63478 16.106 7.99743 14.3632 7.99743 12.1838C7.99743 9.95545 9.68433 8.2601 12.2664 8.2601H12.2664ZM34.5204 18.6756C39.4869 18.6756 43.2099 21.9217 43.2099 28.8974V41.9198H35.6623V29.7705C35.6623 26.7175 34.5699 24.6346 31.8385 24.6346C29.7533 24.6346 28.5104 26.0385 27.9647 27.3947C27.7653 27.8799 27.7163 28.5575 27.7163 29.2363V41.9198H20.1687C20.1687 41.9198 20.2677 21.3392 20.1687 19.2082H27.7179V22.4244C28.7209 20.8769 30.515 18.6755 34.5204 18.6755V18.6756ZM8.44263 19.2098H15.9903V41.9199H8.44263V19.2098Z" fill="white"/>
</svg>
