<svg width="90" height="90" viewBox="0 0 90 90" fill="none" xmlns="http://www.w3.org/2000/svg">
<path d="M45 9.04053C32.571 9.04053 22.5 19.071 22.5 31.4955C22.5 52.9785 45 80.9955 45 80.9955C45 80.9955 67.5 52.974 67.5 31.4955C67.5 19.0755 57.429 9.04053 45 9.04053ZM45 43.92C41.7776 43.92 38.6872 42.6399 36.4087 40.3614C34.1301 38.0828 32.85 34.9924 32.85 31.77C32.85 28.5476 34.1301 25.4572 36.4087 23.1787C38.6872 20.9001 41.7776 19.62 45 19.62C48.2224 19.62 51.3128 20.9001 53.5913 23.1787C55.8699 25.4572 57.15 28.5476 57.15 31.77C57.15 34.9924 55.8699 38.0828 53.5913 40.3614C51.3128 42.6399 48.2224 43.92 45 43.92Z" fill="white"/>
</svg>
