<svg width="93" height="90" viewBox="0 0 93 90" fill="none" xmlns="http://www.w3.org/2000/svg">
<path d="M78.1201 25.5355C66.9601 8.9599 44.1751 4.03204 26.5051 14.3358C9.30007 24.6395 3.72007 47.0389 14.8801 63.6144L15.8101 64.9584L12.0901 78.398L26.0401 74.8141L27.4351 75.7101C33.4801 78.846 39.9901 80.638 46.5001 80.638C53.4751 80.638 60.4501 78.846 66.4951 75.2621C83.7001 64.5104 88.8151 42.559 78.1201 25.5355ZM68.3551 60.0305C66.4951 62.7184 64.1701 64.5104 60.9151 64.9584C59.0551 64.9584 56.7301 65.8544 47.4301 62.2705C39.5251 58.6866 33.0151 52.8627 28.3651 46.1429C25.5751 43.007 24.1801 38.9751 23.7151 34.9432C23.7151 31.3593 25.1101 28.2234 27.4351 25.9834C28.3651 25.0875 29.2951 24.6395 30.2251 24.6395H32.5501C33.4801 24.6395 34.4101 24.6395 34.8751 26.4314C35.8051 28.6714 38.1301 34.0472 38.1301 34.4952C38.5951 34.9432 38.5951 35.8392 38.1301 36.2872C38.5951 37.1831 38.1301 38.0791 37.6651 38.5271C37.2001 38.9751 36.7351 39.8711 36.2701 40.3191C35.3401 40.767 34.8751 41.663 35.3401 42.559C37.2001 45.2469 39.5251 47.9348 41.8501 50.1748C44.6401 52.4147 47.4301 54.2067 50.6851 55.5506C51.6151 55.9986 52.5451 55.9986 53.0101 55.1026C53.4751 54.2067 55.8001 51.9667 56.7301 51.0708C57.6601 50.1748 58.1251 50.1748 59.0551 50.6228L66.4951 54.2067C67.4251 54.6547 68.3551 55.1026 68.8201 55.5506C69.2851 56.8946 69.2851 58.6866 68.3551 60.0305Z" fill="white"/>
</svg>
